<svg xmlns="http://www.w3.org/2000/svg" viewBox="0 0 589.1 70.74"><defs><style>.cls-1{fill:#ffa630;}</style></defs><g id="Icon_Text_2.0_Outlined" data-name="Icon &amp; Text 2.0 Outlined"><g id="Icon-2" data-name="Icon"><path class="cls-1" d="M108,6.05l-.15.14L101,12.28l0,0a7.42,7.42,0,0,1-4.74,1.85H35.47A21.26,21.26,0,0,0,14.21,35.43v.28a21.46,21.46,0,0,0,21.58,21h6.26a3.55,3.55,0,0,1,2.36,6.19l-6.68,6a7.36,7.36,0,0,1-5.61,1.87A35.43,35.43,0,0,1,35.47,0h70A3.55,3.55,0,0,1,108,6.05Z"/><path class="cls-1" d="M67.45,40.63l6.82-6.1a3.54,3.54,0,0,0-2.36-6.18H40.7a7.09,7.09,0,0,0-7.09,7.08h0a7.09,7.09,0,0,0,7.09,7.09H62.49A7.43,7.43,0,0,0,67.45,40.63Z"/></g><path class="cls-1" d="M137.34,46a8.72,8.72,0,0,1-1.63,1,14,14,0,0,1-2.62.93,12.16,12.16,0,0,1-3.35.37,13.45,13.45,0,0,1-5.29-1.06,11.92,11.92,0,0,1-4-2.78,12.33,12.33,0,0,1-2.53-4,13.29,13.29,0,0,1-.89-4.87,14.63,14.63,0,0,1,.91-5.23,12,12,0,0,1,2.57-4.16,11.75,11.75,0,0,1,3.95-2.73,12.76,12.76,0,0,1,5-1,13.13,13.13,0,0,1,4.25.64,14.3,14.3,0,0,1,3.18,1.48l-1.6,3.78A12.37,12.37,0,0,0,132.9,27a8.06,8.06,0,0,0-3.3-.64,7.64,7.64,0,0,0-3.17.67,8.38,8.38,0,0,0-2.68,1.91,9.46,9.46,0,0,0-1.84,2.88,9.24,9.24,0,0,0-.67,3.53,10.8,10.8,0,0,0,.6,3.63,8.53,8.53,0,0,0,1.74,2.9,7.71,7.71,0,0,0,2.69,1.87,10,10,0,0,0,7,.05,8.76,8.76,0,0,0,2.37-1.37Z"/><path class="cls-1" d="M144.46,22.72h16.77V26.6H148.52v6.74h11.32v3.89H148.52V44.1h13.2V48H144.46Z"/><path class="cls-1" d="M181.89,48V22.72h7.18a16.22,16.22,0,0,1,6.41,1.14,11.55,11.55,0,0,1,4.27,3,12.24,12.24,0,0,1,2.38,4.19,14.58,14.58,0,0,1,.76,4.63,12.38,12.38,0,0,1-1,5.1,11.75,11.75,0,0,1-6.78,6.34,13.54,13.54,0,0,1-4.79.85ZM186,44.1h3.58a11.58,11.58,0,0,0,3.73-.57,8.23,8.23,0,0,0,2.9-1.67,7.43,7.43,0,0,0,1.89-2.71,9.58,9.58,0,0,0,.68-3.73,9.39,9.39,0,0,0-.79-4,7.75,7.75,0,0,0-2-2.74,8.25,8.25,0,0,0-2.76-1.55,9.65,9.65,0,0,0-2.95-.49H186Z"/><path class="cls-1" d="M210,22.72h16.77V26.6h-12.7v6.74h11.31v3.89H214.11V44.1H227.3V48H210Z"/><path class="cls-1" d="M249.62,27.89a16.86,16.86,0,0,0-2.88-1.23,9.22,9.22,0,0,0-2.92-.51,4.68,4.68,0,0,0-2.95.84,2.75,2.75,0,0,0-1.07,2.29,2.58,2.58,0,0,0,.74,1.82,6.62,6.62,0,0,0,1.93,1.35c.79.39,1.62.75,2.5,1.1a20.39,20.39,0,0,1,2.26,1,9.74,9.74,0,0,1,2,1.39A5.69,5.69,0,0,1,250.72,38a7.91,7.91,0,0,1,.53,3,6.91,6.91,0,0,1-1,3.63,7.22,7.22,0,0,1-2.9,2.6,9.79,9.79,0,0,1-4.55,1,13.92,13.92,0,0,1-3.11-.35,15.46,15.46,0,0,1-2.86-.94,12.46,12.46,0,0,1-2.5-1.42l1.8-3.12a12.36,12.36,0,0,0,1.91,1.14,12.05,12.05,0,0,0,2.21.83,8,8,0,0,0,2.17.32,6.55,6.55,0,0,0,2.13-.37,4,4,0,0,0,1.79-1.16,3.17,3.17,0,0,0,.69-2.15,2.74,2.74,0,0,0-.62-1.83,6.38,6.38,0,0,0-1.62-1.32,15,15,0,0,0-2.17-1c-.76-.3-1.56-.64-2.39-1a11.17,11.17,0,0,1-2.31-1.37,6,6,0,0,1-1.68-2,6.08,6.08,0,0,1-.63-2.89,6.8,6.8,0,0,1,.94-3.62,6.54,6.54,0,0,1,2.69-2.45,9.12,9.12,0,0,1,4-1,14.23,14.23,0,0,1,4.57.64,16.06,16.06,0,0,1,3.39,1.58Z"/><path class="cls-1" d="M258.3,22.72h4.06V48H258.3Z"/><path class="cls-1" d="M291.18,45.66a7.63,7.63,0,0,1-1.48.92,12.7,12.7,0,0,1-2.11.84c-.8.24-1.62.44-2.45.61a12.37,12.37,0,0,1-2.33.24,15.23,15.23,0,0,1-5.53-.94,12.36,12.36,0,0,1-4.19-2.59,11.14,11.14,0,0,1-2.67-3.88,12.66,12.66,0,0,1-.94-5,14.71,14.71,0,0,1,1.06-5.78,12.51,12.51,0,0,1,2.85-4.24,11.76,11.76,0,0,1,4.13-2.58,14.09,14.09,0,0,1,5-.87,16.44,16.44,0,0,1,4.25.52,14.71,14.71,0,0,1,3.38,1.32L288.75,28a7.38,7.38,0,0,0-1.68-.75,21.6,21.6,0,0,0-2.1-.55,9.8,9.8,0,0,0-2-.23,11.59,11.59,0,0,0-3.89.61,7.71,7.71,0,0,0-4.81,4.65,10.55,10.55,0,0,0-.64,3.8,9,9,0,0,0,.69,3.58,8.44,8.44,0,0,0,1.89,2.74,8.07,8.07,0,0,0,2.9,1.75,11,11,0,0,0,3.75.61,12.27,12.27,0,0,0,2.29-.21,6.22,6.22,0,0,0,1.91-.66v-4.2h-4.75V35.25h8.85Z"/><path class="cls-1" d="M321.25,48.89,301.84,30.08l1.21.48L303.12,48H299V21.85h.21l19.05,18.81-.9-.27-.07-17.67h4V48.89Z"/><path class="cls-1" d="M361.66,46A9.07,9.07,0,0,1,360,47a14.32,14.32,0,0,1-2.63.93,12.11,12.11,0,0,1-3.35.37,13.49,13.49,0,0,1-5.29-1.06,12,12,0,0,1-4-2.78,12.35,12.35,0,0,1-2.54-4,13.29,13.29,0,0,1-.88-4.87,14.85,14.85,0,0,1,.9-5.23,12,12,0,0,1,2.57-4.16,11.69,11.69,0,0,1,4-2.73,12.71,12.71,0,0,1,5-1,13.19,13.19,0,0,1,4.26.64,14.21,14.21,0,0,1,3.17,1.48l-1.6,3.78A11.81,11.81,0,0,0,357.21,27a8,8,0,0,0-3.29-.64,7.69,7.69,0,0,0-3.18.67,8.24,8.24,0,0,0-2.67,1.91,9.27,9.27,0,0,0-1.84,2.88,9.06,9.06,0,0,0-.68,3.53,10.56,10.56,0,0,0,.61,3.63,8.36,8.36,0,0,0,1.73,2.9,7.71,7.71,0,0,0,2.69,1.87,10,10,0,0,0,7,.05A8.83,8.83,0,0,0,360,42.4Z"/><path class="cls-1" d="M367.21,35.39a12.42,12.42,0,0,1,1-4.95A13.56,13.56,0,0,1,371,26.29a13,13,0,0,1,4.09-2.83,12.81,12.81,0,0,1,10,0,13.38,13.38,0,0,1,7,7,12.76,12.76,0,0,1,0,10,12.75,12.75,0,0,1-2.83,4.11,13.33,13.33,0,0,1-4.15,2.78,13.12,13.12,0,0,1-10,0A13.12,13.12,0,0,1,371,44.54a12.88,12.88,0,0,1-2.78-4.1A12.69,12.69,0,0,1,367.21,35.39Zm4.17,0a9.12,9.12,0,0,0,.68,3.54A8.85,8.85,0,0,0,374,41.76a9,9,0,0,0,2.83,1.93,8.68,8.68,0,0,0,3.45.69,8.43,8.43,0,0,0,3.42-.69,8.6,8.6,0,0,0,2.75-1.93,9.6,9.6,0,0,0,1.84-2.87,9.45,9.45,0,0,0,0-7A9.87,9.87,0,0,0,386.34,29,8.31,8.31,0,0,0,383.57,27a8.59,8.59,0,0,0-3.44-.69,8.28,8.28,0,0,0-3.44.71A8.8,8.8,0,0,0,373.9,29,8.71,8.71,0,0,0,372,31.86,9.33,9.33,0,0,0,371.38,35.35Z"/><path class="cls-1" d="M422.42,48.89,403,30.08l1.21.48L404.29,48H400.2V21.85h.2l19.06,18.81-.9-.27-.07-17.67h4V48.89Z"/><path class="cls-1" d="M446.23,27.89a16.86,16.86,0,0,0-2.88-1.23,9.22,9.22,0,0,0-2.92-.51,4.68,4.68,0,0,0-2.95.84,2.75,2.75,0,0,0-1.07,2.29,2.54,2.54,0,0,0,.74,1.82,6.62,6.62,0,0,0,1.93,1.35c.79.39,1.62.75,2.5,1.1a20.39,20.39,0,0,1,2.26,1,9.74,9.74,0,0,1,2,1.39A5.69,5.69,0,0,1,447.33,38a7.91,7.91,0,0,1,.53,3,6.82,6.82,0,0,1-1,3.63,7.19,7.19,0,0,1-2.89,2.6,9.79,9.79,0,0,1-4.55,1,13.92,13.92,0,0,1-3.11-.35,15.46,15.46,0,0,1-2.86-.94,12.46,12.46,0,0,1-2.5-1.42l1.8-3.12a12.36,12.36,0,0,0,1.91,1.14,12.05,12.05,0,0,0,2.21.83,8,8,0,0,0,2.17.32,6.55,6.55,0,0,0,2.13-.37A4,4,0,0,0,443,43.2a3.17,3.17,0,0,0,.69-2.15,2.8,2.8,0,0,0-.62-1.83,6.38,6.38,0,0,0-1.62-1.32,15,15,0,0,0-2.17-1c-.76-.3-1.56-.64-2.39-1a11.17,11.17,0,0,1-2.31-1.37,6,6,0,0,1-1.68-2,6.08,6.08,0,0,1-.63-2.89,6.8,6.8,0,0,1,.94-3.62,6.54,6.54,0,0,1,2.69-2.45,9.12,9.12,0,0,1,4-1,14.23,14.23,0,0,1,4.57.64,15.74,15.74,0,0,1,3.38,1.58Z"/><path class="cls-1" d="M458.56,38.89a5,5,0,0,0,.78,2.73,6.16,6.16,0,0,0,2.06,2,5.55,5.55,0,0,0,2.89.76,5.82,5.82,0,0,0,3-.76,6,6,0,0,0,2.1-2,5,5,0,0,0,.78-2.73V22.72h4V39a9,9,0,0,1-1.32,4.88,9.06,9.06,0,0,1-3.56,3.27,11.08,11.08,0,0,1-9.87,0A8.92,8.92,0,0,1,454.5,39V22.72h4.06Z"/><path class="cls-1" d="M482.37,22.72h4.07V44.1H498.9V48H482.37Z"/><path class="cls-1" d="M501.4,22.72h16.91V26.6h-6.53V48h-4V26.6H501.4Z"/><path class="cls-1" d="M525.18,22.72h4.06V48h-4.06Z"/><path class="cls-1" d="M560.14,48.89l-19.4-18.81,1.21.48L542,48h-4.1V21.85h.21l19.06,18.81-.9-.27-.07-17.67h4V48.89Z"/><path class="cls-1" d="M589.1,45.66a7.63,7.63,0,0,1-1.48.92,13.06,13.06,0,0,1-2.11.84c-.8.24-1.62.44-2.45.61a12.46,12.46,0,0,1-2.33.24,15.33,15.33,0,0,1-5.54-.94A12.41,12.41,0,0,1,571,44.74a11.14,11.14,0,0,1-2.67-3.88,12.66,12.66,0,0,1-.94-5,14.71,14.71,0,0,1,1.06-5.78,12.37,12.37,0,0,1,2.85-4.24,11.67,11.67,0,0,1,4.13-2.58,14.07,14.07,0,0,1,4.94-.87,16.47,16.47,0,0,1,4.26.52A14.89,14.89,0,0,1,588,24.28L586.67,28a7.27,7.27,0,0,0-1.69-.75,20.19,20.19,0,0,0-2.1-.55,9.64,9.64,0,0,0-2-.23,11.53,11.53,0,0,0-3.88.61,7.8,7.8,0,0,0-2.95,1.79,7.67,7.67,0,0,0-1.86,2.86,10.55,10.55,0,0,0-.64,3.8,9,9,0,0,0,.69,3.58,8.29,8.29,0,0,0,1.89,2.74,8.07,8.07,0,0,0,2.9,1.75,11,11,0,0,0,3.75.61,12.27,12.27,0,0,0,2.29-.21,6.22,6.22,0,0,0,1.91-.66v-4.2h-4.75V35.25h8.85Z"/></g></svg>